<?xml version="1.0" standalone="no"?>
<!DOCTYPE svg PUBLIC "-//W3C//DTD SVG 20010904//EN"
 "http://www.w3.org/TR/2001/REC-SVG-20010904/DTD/svg10.dtd">
<svg version="1.0" xmlns="http://www.w3.org/2000/svg"
 width="1024.000000pt" height="1024.000000pt" viewBox="0 0 1024.000000 1024.000000"
 preserveAspectRatio="xMidYMid meet">

<g transform="translate(0.000000,1024.000000) scale(0.100000,-0.100000)"
fill="#000000" stroke="none">
<path d="M27 9873 c18 -2 50 -2 70 0 21 2 7 4 -32 4 -38 0 -55 -2 -38 -4z"/>
<path d="M623 9873 c26 -2 68 -2 95 0 26 2 4 3 -48 3 -52 0 -74 -1 -47 -3z"/>
<path d="M1315 9817 c15 -21 30 -35 33 -32 3 3 -9 20 -27 38 l-34 32 28 -38z"/>
<path d="M1083 9737 c-29 -27 -35 -38 -30 -59 15 -57 68 -94 102 -70 25 17 55
67 55 89 0 29 -42 73 -70 73 -11 0 -37 -15 -57 -33z"/>
<path d="M801 9734 c-30 -38 -26 -69 12 -110 39 -43 67 -41 98 9 26 44 24 69
-9 100 -36 35 -74 35 -101 1z"/>
<path d="M546 9718 c-17 -24 -21 -54 -8 -61 4 -3 8 7 9 21 0 15 11 34 23 44
17 14 18 18 7 18 -9 0 -23 -10 -31 -22z"/>
<path d="M600 9736 c0 -2 7 -7 16 -10 8 -3 12 -2 9 4 -6 10 -25 14 -25 6z"/>
<path d="M1364 9620 c0 -58 1 -81 3 -52 2 28 2 76 0 105 -2 28 -3 5 -3 -53z"/>
<path d="M0 9303 l0 -193 371 0 371 0 -7 38 c-19 99 -11 260 15 286 6 6 15 5
24 -3 18 -15 37 -6 29 15 -3 9 -12 12 -24 9 -23 -8 -26 10 -3 19 9 3 34 7 57
7 24 1 6 5 -43 10 -47 5 -244 7 -437 6 l-353 -2 0 -192z"/>
<path d="M928 9493 c7 -3 16 -2 19 1 4 3 -2 6 -13 5 -11 0 -14 -3 -6 -6z"/>
<path d="M1075 9490 c-27 -4 -38 -8 -24 -8 14 -1 29 -5 33 -9 4 -5 13 -8 19
-8 7 0 13 -15 15 -32 3 -32 2 -33 -37 -33 -23 0 -41 -4 -41 -10 0 -5 -18 -10
-40 -10 -22 0 -40 -4 -40 -10 0 -5 18 -10 40 -10 33 0 40 -3 40 -20 0 -19 -7
-20 -120 -20 -115 0 -120 1 -120 21 0 36 -25 15 -28 -24 -2 -28 1 -37 12 -37
9 0 16 -9 16 -20 0 -17 7 -20 40 -20 42 0 40 3 44 -63 1 -10 10 -25 20 -32 22
-17 14 -22 -44 -28 -19 -2 83 -4 228 -3 l262 1 1 -40 c1 -22 1 -178 0 -347 -2
-207 1 -308 8 -308 7 0 11 83 11 243 0 133 4 261 9 284 5 26 3 91 -6 170 -7
70 -13 166 -12 213 0 47 1 104 0 128 l-1 42 -117 -2 c-65 0 -140 -4 -168 -8z"/>
<path d="M1035 8948 c-28 -16 -35 -28 -35 -65 0 -49 42 -93 90 -93 22 0 45 7
54 16 33 32 32 100 -1 137 -18 20 -77 23 -108 5z m89 -30 c46 -66 -19 -153
-76 -101 -25 22 -23 71 4 100 27 29 52 29 72 1z"/>
<path d="M1057 8904 c-9 -10 -9 -62 1 -67 4 -3 17 -1 30 4 31 12 28 62 -3 67
-12 2 -24 0 -28 -4z"/>
<path d="M780 8915 c-8 -9 -9 -15 -2 -15 6 0 14 5 17 10 4 6 16 8 27 4 14 -4
18 -2 14 5 -10 16 -41 14 -56 -4z"/>
<path d="M780 8844 c0 -6 6 -19 14 -29 17 -24 46 -13 46 17 -1 21 -2 22 -14 6
-12 -16 -14 -16 -29 0 -9 9 -17 12 -17 6z"/>
<path d="M744 8562 c-35 -29 -44 -57 -44 -133 0 -62 4 -77 26 -106 l25 -33
240 0 c219 0 241 2 258 19 21 21 35 104 26 159 -18 113 -15 112 -292 112 -193
-1 -220 -3 -239 -18z m296 -93 c0 -10 5 -19 10 -19 6 0 9 5 8 11 -2 6 3 14 10
16 15 6 17 -83 2 -92 -6 -4 -7 -11 -4 -17 4 -7 2 -8 -5 -4 -6 4 -25 9 -41 11
-22 3 -28 0 -24 -10 3 -8 15 -13 26 -12 14 1 21 -4 23 -18 1 -19 -6 -20 -102
-23 -87 -2 -103 -1 -103 13 0 8 5 15 10 15 6 0 10 6 9 13 -3 28 2 37 24 38 16
1 17 3 5 6 -21 5 -61 -15 -53 -28 4 -5 1 -9 -4 -9 -6 0 -11 10 -11 23 0 12 -2
38 -6 58 -7 44 1 50 50 42 33 -5 37 -9 33 -29 -2 -14 2 -25 11 -29 12 -4 13 1
9 25 -5 22 -3 30 8 30 9 0 16 -10 16 -22 1 -17 3 -18 6 -6 2 10 18 20 39 24
19 3 34 10 34 16 0 5 5 6 10 3 6 -3 10 -15 10 -26z m140 -34 l0 -45 -41 0
c-24 0 -38 -4 -34 -10 3 -6 -1 -7 -10 -4 -12 5 -13 10 -6 17 6 6 11 28 11 49
0 38 0 38 40 38 l40 0 0 -45z"/>
<path d="M840 8452 c0 -4 4 -13 9 -20 7 -11 9 -11 14 1 3 9 -1 18 -9 21 -8 3
-14 2 -14 -2z"/>
<path d="M984 8446 c-9 -23 3 -46 23 -45 17 1 17 2 1 6 -25 6 -22 23 3 23 12
0 19 5 17 13 -7 18 -37 21 -44 3z"/>
<path d="M940 8401 c0 -5 8 -12 17 -15 15 -6 15 -8 3 -16 -9 -6 -10 -10 -3
-10 20 0 24 18 7 34 -18 18 -24 20 -24 7z"/>
<path d="M1138 8453 c7 -3 16 -2 19 1 4 3 -2 6 -13 5 -11 0 -14 -3 -6 -6z"/>
<path d="M1130 8420 c-12 -8 -11 -10 8 -10 12 0 22 5 22 10 0 13 -11 13 -30 0z"/>
<path d="M70 8445 c0 -54 0 -55 29 -55 32 0 61 30 61 62 0 21 -37 48 -67 48
-21 0 -23 -4 -23 -55z m58 33 c28 -28 2 -88 -33 -74 -10 3 -15 19 -15 46 0 32
4 40 18 40 10 0 23 -5 30 -12z"/>
<path d="M292 8467 c-8 -9 -2 -15 24 -23 19 -6 34 -7 34 -3 0 5 -4 9 -9 9 -5
0 -16 7 -24 15 -12 11 -17 12 -25 2z"/>
<path d="M454 8460 c3 -14 6 -34 6 -45 1 -17 3 -15 16 8 19 36 47 32 56 -8 6
-29 6 -29 5 5 -2 32 -5 35 -37 38 -19 2 -39 9 -43 15 -5 7 -6 2 -3 -13z"/>
<path d="M213 8458 c-28 -7 -33 -13 -33 -38 0 -33 23 -45 64 -34 29 7 35 39
14 66 -10 12 -20 13 -45 6z m29 -17 c-11 -7 -11 -9 2 -14 24 -10 19 -26 -10
-33 -17 -4 -29 -2 -34 7 -13 19 7 49 33 49 16 0 18 -3 9 -9z"/>
<path d="M382 8448 c-7 -7 -12 -16 -12 -22 0 -5 6 -2 14 9 8 12 20 16 35 12
11 -3 19 -1 15 4 -8 13 -38 11 -52 -3z"/>
<path d="M285 8390 c3 -5 12 -7 20 -3 21 7 19 13 -6 13 -11 0 -18 -4 -14 -10z"/>
<path d="M1361 7965 c0 -107 3 -155 9 -145 12 18 12 244 0 280 -5 15 -8 -40
-9 -135z"/>
<path d="M1213 7917 c3 -90 10 -172 14 -182 14 -34 37 -24 45 20 8 51 10 239
2 288 -6 33 -10 37 -37 37 l-30 0 6 -163z"/>
<path d="M871 7702 c1 -42 3 -69 6 -60 3 12 13 16 33 15 15 -1 26 -5 23 -10
-2 -4 3 -10 11 -13 9 -3 16 -13 16 -21 0 -8 4 -12 9 -9 9 6 27 -46 36 -106 7
-43 0 -46 -48 -21 -18 9 -44 16 -60 15 -15 -1 -26 2 -25 7 7 23 -14 11 -77
-46 l-69 -62 62 -65 c34 -35 66 -76 72 -91 5 -14 10 -71 10 -126 0 -58 4 -99
10 -99 18 0 89 100 109 155 30 80 44 187 39 291 -5 83 -9 98 -41 155 -41 72
-70 109 -86 109 -16 0 -24 20 -12 34 9 10 8 15 -4 20 -13 4 -15 -6 -14 -72z
m-11 -212 c-6 -11 -13 -20 -16 -20 -2 0 0 9 6 20 6 11 13 20 16 20 2 0 0 -9
-6 -20z m-100 -90 c-6 -11 -13 -20 -16 -20 -2 0 0 9 6 20 6 11 13 20 16 20 2
0 0 -9 -6 -20z"/>
<path d="M460 7595 c0 -15 4 -24 10 -20 6 3 10 -3 10 -15 0 -12 4 -19 9 -15
16 10 23 -15 9 -32 -9 -12 -9 -15 0 -9 7 4 12 1 12 -8 0 -9 5 -17 10 -17 6 -1
16 -2 23 -3 6 0 12 -6 12 -13 0 -6 4 -15 8 -20 5 -4 7 -1 5 7 -1 8 3 14 10 13
20 -5 14 12 -14 38 -15 13 -44 46 -65 72 -37 46 -39 47 -39 22z"/>
<path d="M5078 7613 c28 -2 76 -2 105 0 28 2 5 3 -53 3 -58 0 -81 -1 -52 -3z"/>
<path d="M762 7592 c-9 -22 -86 -93 -132 -121 -19 -11 -32 -22 -27 -22 4 -1
13 -2 20 -3 7 -1 12 -16 13 -36 0 -19 4 -63 8 -97 9 -70 -2 -85 -44 -63 -20
11 -22 17 -17 73 l6 62 -20 -38 c-11 -21 -17 -42 -14 -48 4 -5 3 -8 -2 -7 -5
2 -30 -14 -56 -36 l-47 -38 0 -114 0 -114 68 1 c45 1 59 3 42 8 -25 7 -25 8
-3 15 12 4 39 4 60 0 35 -7 36 -8 13 -15 -16 -4 2 -7 50 -8 48 -1 81 4 89 12
11 10 13 10 7 0 -5 -9 0 -13 16 -13 23 0 24 2 17 58 -4 31 -8 81 -8 111 -1 53
-2 55 -76 132 -41 43 -75 86 -75 94 0 8 8 23 18 33 90 96 100 110 107 150 7
43 0 56 -13 24z m-79 -440 c9 -9 33 -39 53 -69 33 -51 37 -73 11 -73 -7 0 -6
4 3 10 9 6 10 10 3 10 -6 0 -15 -4 -18 -10 -3 -5 -16 -10 -28 -10 -18 0 -19 2
-7 10 11 7 -3 10 -46 10 -104 0 -154 10 -154 31 0 26 45 74 91 97 42 21 61 20
92 -6z"/>
<path d="M5338 7603 c7 -3 16 -2 19 1 4 3 -2 6 -13 5 -11 0 -14 -3 -6 -6z"/>
<path d="M1252 7548 c-2 -70 -21 -254 -29 -288 l-6 -25 -13 30 c-7 17 -13 67
-14 117 0 79 -11 117 -23 86 -3 -7 -6 -5 -6 6 -1 11 -4 16 -8 12 -4 -4 -8 -46
-9 -94 -3 -185 -79 -354 -176 -391 -20 -8 -27 -18 -30 -43 -3 -32 -5 -33 -88
-56 -132 -35 -270 -39 -412 -12 -65 12 -122 28 -128 35 -7 8 -10 24 -8 37 2
18 10 24 39 26 l36 3 8 140 c7 137 8 141 37 174 17 20 26 39 22 46 -4 8 -3 9
4 5 16 -10 14 5 -3 28 -12 16 -22 18 -77 12 -35 -4 -70 -7 -78 -8 -8 0 -22 -6
-30 -13 -8 -6 -23 -15 -34 -19 -16 -5 -17 -13 -12 -54 16 -114 29 -153 71
-219 25 -37 45 -71 45 -75 0 -5 -18 -8 -39 -8 -34 0 -45 6 -76 43 -86 99 -120
223 -111 397 6 104 5 105 -13 81 -17 -22 -19 -23 -28 -7 -7 12 -12 -35 -16
-156 -9 -231 -9 -640 1 -654 6 -10 314 -16 1177 -25 43 0 45 19 44 330 -2 281
-13 661 -17 539z"/>
<path d="M400 7475 c8 -11 21 -26 28 -33 6 -7 12 -18 12 -23 0 -5 6 -9 14 -9
16 0 31 -34 21 -50 -3 -5 -2 -10 2 -10 5 0 14 9 20 19 10 17 5 25 -50 72 -34
30 -55 45 -47 34z"/>
<path d="M6080 7397 c0 -7 191 -109 196 -105 2 2 -42 28 -96 57 -55 29 -100
50 -100 48z"/>
<path d="M6320 7257 c68 -46 90 -59 90 -55 0 7 -108 78 -117 78 -4 0 8 -11 27
-23z"/>
<path d="M4890 7180 c-114 -11 -347 -62 -440 -95 -129 -47 -366 -171 -455
-239 -395 -301 -666 -717 -766 -1178 -19 -87 -23 -140 -25 -343 -3 -263 3
-315 57 -510 92 -334 271 -632 534 -888 295 -290 589 -435 1015 -502 330 -53
631 -21 935 97 242 95 330 146 525 309 281 234 534 615 623 939 44 160 44 157
62 285 90 644 -190 1326 -715 1739 -324 256 -676 382 -1095 391 -93 2 -208 0
-255 -5z m352 -230 c-4 -25 -1 -30 17 -30 17 0 21 6 21 30 0 23 5 30 19 30 11
0 23 -4 26 -10 3 -5 31 -10 61 -10 30 0 54 -4 54 -8 0 -5 43 -8 97 -8 69 1 98
-3 100 -11 3 -7 13 -13 24 -13 12 0 19 -7 19 -20 0 -13 -7 -20 -20 -20 -17 0
-20 -7 -20 -39 0 -29 -5 -41 -17 -44 -28 -7 136 -8 220 -1 57 5 77 11 77 21 0
23 26 42 49 36 11 -3 21 -9 21 -14 0 -5 8 -9 19 -9 10 0 24 -7 31 -15 10 -12
9 -16 -4 -21 -14 -5 -13 -10 8 -35 53 -62 38 -139 -30 -158 -19 -5 -42 -7 -49
-5 -11 5 -14 -53 -17 -338 l-3 -344 -38 -76 c-33 -69 -60 -99 -273 -312 l-237
-237 19 -22 c10 -12 113 -116 229 -232 117 -115 228 -235 248 -265 58 -88 61
-114 55 -476 l-6 -324 40 0 c74 0 110 -69 73 -141 -9 -16 -27 -34 -41 -39 -15
-6 -377 -10 -926 -10 l-900 0 -34 34 c-28 28 -34 42 -34 75 0 63 22 88 81 96
l51 7 -6 67 c-20 239 -27 463 -18 539 18 155 89 253 388 540 l160 154 -236
236 c-332 333 -320 304 -320 760 l0 312 -38 0 c-52 0 -77 28 -77 86 0 36 6 49
32 76 l32 32 303 0 c167 0 241 1 166 3 -76 2 -138 6 -138 9 0 3 11 16 25 29
16 17 35 25 60 25 19 0 35 5 35 10 0 6 13 10 28 10 16 0 34 8 42 20 8 12 26
20 42 20 15 0 28 5 28 10 0 6 13 10 29 10 16 0 31 5 33 11 2 7 38 14 88 16 47
3 87 7 89 9 2 2 59 4 126 4 l122 0 -5 -30z m-1040 -444 c4 -6 8 -130 7 -275 0
-144 2 -266 5 -269 4 -3 -2 -14 -11 -24 -16 -18 -16 -18 2 -12 15 6 17 4 12
-10 -4 -10 -7 -30 -7 -46 0 -15 -7 -30 -15 -34 -8 -3 -14 0 -12 6 2 13 -61 20
-69 7 -2 -5 7 -11 21 -15 14 -3 25 -12 25 -20 0 -11 -18 -14 -80 -14 -47 0
-80 -4 -80 -10 0 -6 -47 -10 -120 -10 l-120 0 0 30 0 30 -60 0 c-53 0 -60 2
-60 20 0 13 -7 20 -20 20 -18 0 -20 7 -20 80 0 50 4 80 11 80 6 0 9 10 8 23
-4 29 8 48 26 40 10 -3 15 1 15 14 0 28 40 43 115 43 l65 0 0 -100 c0 -93 -1
-100 -20 -100 -13 0 -20 -7 -20 -20 0 -18 7 -20 60 -20 l60 0 0 40 0 40 60 0
60 0 0 60 c0 53 -2 60 -20 60 -18 0 -20 7 -20 60 l0 60 -60 0 -60 0 0 51 c0
34 -5 56 -15 63 -22 17 37 116 70 116 13 0 35 11 49 25 21 21 35 25 103 27 84
3 104 0 115 -16z m2129 -7 c16 -11 29 -29 29 -40 0 -10 5 -19 10 -19 6 0 10
-9 10 -20 0 -16 -7 -20 -30 -20 -23 0 -30 -4 -30 -20 0 -17 -7 -20 -40 -20
l-40 0 0 40 c0 22 -4 40 -10 40 -15 0 -12 30 3 30 6 1 1 7 -13 15 -25 14 -25
14 -2 15 12 0 22 5 22 10 0 18 61 11 91 -11z m-2371 1 c0 -5 -4 -10 -10 -10
-5 0 -10 5 -10 10 0 6 5 10 10 10 6 0 10 -4 10 -10z m-120 -270 c0 -5 -9 -10
-20 -10 -11 0 -20 5 -20 10 0 6 9 10 20 10 11 0 20 -4 20 -10z m2360 -110 c0
-33 -3 -40 -20 -40 -17 0 -20 7 -20 40 0 33 3 40 20 40 17 0 20 -7 20 -40z
m20 -130 c0 -13 -11 -13 -30 0 -12 8 -11 10 8 10 12 0 22 -4 22 -10z m-2518
-581 c24 -13 48 -67 48 -108 0 -87 -135 -127 -206 -60 -19 18 -24 33 -24 72 0
40 5 53 29 78 25 24 37 29 81 29 28 0 60 -5 72 -11z m2925 -23 c36 -42 32
-108 -7 -148 -29 -29 -34 -30 -92 -26 -48 4 -65 9 -80 28 -27 34 -33 69 -17
114 18 52 48 68 118 63 44 -3 59 -9 78 -31z"/>
<path d="M5160 6920 c0 -33 3 -40 20 -40 17 0 20 7 20 40 0 33 -3 40 -20 40
-17 0 -20 -7 -20 -40z"/>
<path d="M5140 6810 c0 -5 -30 -11 -67 -13 -48 -2 -39 -3 32 -4 55 0 90 2 78
4 -13 2 -23 9 -23 14 0 5 -4 9 -10 9 -5 0 -10 -4 -10 -10z"/>
<path d="M5943 6803 c9 -2 23 -2 30 0 6 3 -1 5 -18 5 -16 0 -22 -2 -12 -5z"/>
<path d="M4410 6270 l0 -330 24 -38 c13 -20 90 -102 171 -182 165 -163 294
-301 349 -373 67 -90 76 -77 -248 -399 l-285 -283 -5 -105 c-11 -209 -15 -556
-6 -569 7 -12 121 -14 661 -15 605 -1 717 3 706 22 -2 4 -1 33 2 65 4 32 4 60
-1 63 -4 3 -8 121 -8 262 l0 257 -290 288 -290 288 0 43 c0 60 -14 44 360 434
96 100 185 201 198 224 21 40 22 48 22 360 l0 318 -680 0 -680 0 0 -330z
m1230 -203 c0 -23 -9 -60 -19 -82 -36 -79 -487 -535 -529 -535 -24 0 -500 479
-522 525 -11 23 -20 62 -20 88 l0 47 538 2 c295 2 540 2 545 0 4 -2 7 -22 7
-45z m-492 -1043 c26 -18 52 -65 52 -93 0 -11 -5 -43 -11 -71 -9 -41 -17 -55
-42 -71 -38 -23 -78 -24 -116 -5 -32 17 -50 53 -58 116 -10 82 37 140 112 140
22 0 51 -7 63 -16z m61 -443 c65 -34 201 -140 298 -234 100 -97 127 -133 136
-184 l7 -33 -339 0 c-186 0 -432 -3 -548 -7 -203 -6 -210 -5 -215 14 -15 59 1
84 136 218 142 141 200 186 286 222 73 30 184 32 239 4z"/>
<path d="M4080 6110 c0 -43 3 -50 20 -50 17 0 20 7 20 50 0 43 -3 50 -20 50
-17 0 -20 -7 -20 -50z"/>
<path d="M1933 7065 c0 -27 2 -38 4 -22 2 15 2 37 0 50 -2 12 -4 0 -4 -28z"/>
<path d="M6686 6966 c30 -37 44 -42 23 -8 -6 10 -21 25 -31 31 -15 9 -12 3 8
-23z"/>
<path d="M6740 6914 c0 -4 25 -34 56 -67 31 -33 81 -93 111 -134 31 -40 58
-73 60 -73 3 0 0 6 -6 14 -6 7 -8 22 -4 31 4 13 3 16 -5 11 -7 -4 -15 0 -19
11 -3 10 -26 37 -50 60 -24 22 -43 45 -43 49 0 4 -22 29 -50 56 -27 26 -50 45
-50 42z"/>
<path d="M6977 6619 c7 -7 15 -10 18 -7 3 3 -2 9 -12 12 -14 6 -15 5 -6 -5z"/>
<path d="M7043 6515 c28 -46 56 -81 61 -78 5 4 6 1 2 -5 -4 -6 13 -51 37 -99
61 -122 132 -302 157 -400 68 -273 100 -585 81 -803 -33 -382 -125 -688 -296
-980 -229 -394 -584 -725 -993 -929 -210 -104 -426 -176 -631 -209 -153 -24
-573 -24 -729 1 -554 88 -1072 390 -1427 832 -102 127 -232 319 -277 410 -95
188 -172 424 -209 635 -22 121 -24 163 -23 415 0 154 5 309 11 345 6 37 7 66
2 68 -5 2 -9 11 -9 20 0 15 2 15 10 2 8 -11 9 -7 4 15 -8 36 -14 45 -14 22 0
-10 -8 -17 -20 -17 -17 0 -20 7 -20 40 0 25 5 40 13 40 30 1 -21 20 -53 20
-44 0 -78 19 -40 21 14 1 37 1 53 0 25 -2 27 0 27 38 l0 41 -40 0 c-33 0 -40
-3 -40 -20 0 -18 -7 -20 -60 -20 l-60 0 0 -40 c0 -33 -3 -40 -20 -40 -16 0
-20 -7 -20 -30 0 -23 -4 -30 -20 -30 -11 0 -20 -4 -20 -10 0 -6 -33 -10 -80
-10 -73 0 -80 -2 -80 -20 0 -18 -7 -20 -80 -20 -73 0 -80 -2 -80 -20 0 -17 7
-20 40 -20 l40 0 0 -40 0 -40 -80 0 -80 0 0 -80 0 -80 -55 0 -55 0 -1 63 c-1
46 -3 56 -9 37 -5 -17 -8 1 -9 58 -1 61 -4 82 -14 82 -11 0 -15 -51 -20 -252
-4 -139 -4 -287 -1 -328 3 -41 7 -460 9 -930 2 -711 5 -870 18 -945 17 -101
43 -210 57 -240 5 -11 12 -31 16 -45 45 -165 243 -465 416 -629 45 -43 64 -67
56 -72 -8 -5 -2 -16 19 -36 16 -16 33 -38 37 -51 4 -12 11 -22 16 -22 5 0 24
-13 42 -29 18 -16 83 -54 145 -84 66 -34 114 -64 117 -75 7 -19 96 -68 96 -52
0 22 45 7 158 -49 96 -48 128 -59 177 -62 33 -2 63 -8 67 -13 10 -14 125 -25
271 -25 77 -1 127 -5 127 -11 0 -5 18 -10 40 -10 22 0 40 -4 40 -8 0 -14 1300
-34 1425 -22 61 6 115 10 120 10 83 -9 162 -10 183 -1 17 6 199 12 487 15 314
3 461 8 463 15 5 16 61 14 77 -3 14 -13 65 -11 65 4 0 4 59 11 130 15 91 5
135 11 144 21 19 18 136 20 136 2 0 -10 2 -10 8 -2 4 7 42 15 85 19 42 4 77
11 77 15 0 4 27 13 60 20 38 8 60 18 60 26 0 9 11 14 30 14 42 0 110 23 110
37 0 6 18 14 40 18 25 4 40 12 40 21 0 8 9 14 20 14 13 0 20 7 20 19 0 13 9
20 30 25 18 3 30 12 30 21 0 8 7 15 15 15 9 0 31 16 51 35 19 19 38 35 42 35
4 0 14 9 22 20 8 11 19 20 25 20 6 0 21 17 33 38 12 20 35 52 52 71 16 18 30
38 30 42 0 5 6 9 14 9 9 0 17 15 21 40 4 26 12 40 22 40 8 0 13 6 10 13 -3 8
8 42 24 78 16 35 29 70 29 77 0 6 4 12 8 12 10 0 46 71 44 85 -1 6 12 25 28
43 30 33 39 62 20 62 -5 0 -10 8 -10 18 0 14 2 15 10 2 8 -13 10 -12 10 3 0 9
9 34 20 54 13 25 16 39 9 44 -7 4 -5 8 5 12 9 4 15 10 14 14 -2 10 12 75 20
88 4 5 5 23 3 39 -1 16 2 31 7 35 6 3 18 69 27 146 15 132 19 320 18 905 -1
517 -1 678 0 862 1 115 4 208 7 208 3 0 5 33 5 72 0 40 3 168 7 285 5 134 4
214 -2 218 -6 4 -11 74 -11 163 -2 157 -14 339 -18 272 -5 -68 -10 -166 -16
-297 -5 -105 -10 -133 -21 -133 -11 0 -14 23 -14 123 0 67 -3 139 -6 160 l-7
37 -82 0 c-57 0 -85 4 -89 13 -5 10 -7 10 -12 0 -4 -8 -27 -13 -65 -13 l-59 0
0 -40 0 -40 -200 0 c-193 0 -200 -1 -200 -20 0 -18 -7 -20 -56 -20 -48 0 -57
3 -61 21 -4 16 -12 20 -30 16 -22 -4 -22 -3 -8 13 21 23 19 47 -5 60 -14 7
-20 21 -20 45 0 18 -4 37 -10 40 -5 3 -10 14 -10 24 0 10 -9 21 -20 24 -11 3
-20 13 -20 22 0 10 -7 15 -17 14 -10 -1 -27 2 -38 7 -21 10 -32 34 -15 34 6 0
10 -4 10 -10 0 -5 5 -10 10 -10 6 0 10 8 10 18 0 25 -30 83 -39 77 -5 -2 -6 7
-3 20 3 19 0 25 -14 25 -9 0 -15 3 -11 6 9 9 -19 34 -37 34 -11 0 -16 9 -16
30 0 17 -4 30 -10 30 -5 0 -10 6 -10 13 0 8 -18 22 -40 32 -24 11 -39 24 -38
33 2 8 -5 16 -14 17 -12 2 -2 -20 35 -80z m22 16 c3 -5 2 -12 -3 -15 -5 -3 -9
1 -9 9 0 17 3 19 12 6z m262 -443 c-3 -8 -6 -5 -6 6 -1 11 2 17 5 13 3 -3 4
-12 1 -19z m93 -209 l0 -39 50 0 50 0 0 40 0 40 40 0 40 0 0 -40 0 -40 40 0
40 0 0 40 0 40 40 0 40 0 0 -40 0 -40 40 0 40 0 0 -40 0 -40 -40 0 c-33 0 -40
-3 -40 -20 0 -17 -7 -20 -40 -20 -33 0 -40 -3 -40 -20 0 -18 -7 -20 -80 -20
-47 0 -80 4 -80 10 0 6 9 10 20 10 11 0 20 5 20 10 0 6 -9 10 -20 10 -13 0
-20 7 -20 20 0 17 -7 20 -46 20 -27 0 -43 -4 -39 -10 3 -5 2 -10 -4 -10 -12 0
-18 19 -27 85 -4 28 -13 59 -20 70 -20 28 -17 33 11 27 22 -4 25 -10 25 -43z
m-4643 -371 c-3 -8 -6 -5 -6 6 -1 11 2 17 5 13 3 -3 4 -12 1 -19z m-539 -25
c-3 -36 -5 -38 -40 -41 l-38 -3 0 40 0 41 41 0 40 0 -3 -37z m-118 -63 c0 -13
-7 -20 -20 -20 -13 0 -20 7 -20 20 0 13 7 20 20 20 13 0 20 -7 20 -20z m-60
-145 c0 -43 -4 -75 -10 -75 -6 0 -10 32 -10 75 0 43 4 75 10 75 6 0 10 -32 10
-75z m-103 -337 c-3 -8 -6 -5 -6 6 -1 11 2 17 5 13 3 -3 4 -12 1 -19z m6233
-2101 c0 -7 -7 -22 -15 -33 -13 -17 -14 -16 -4 14 11 33 19 41 19 19z"/>
<path d="M1354 6395 c0 -99 2 -138 3 -87 2 51 2 132 0 180 -1 48 -3 6 -3 -93z"/>
<path d="M8294 6400 c0 -91 2 -128 3 -82 2 45 2 119 0 165 -1 45 -3 8 -3 -83z"/>
<path d="M3035 6389 c-4 -6 -5 -12 -2 -15 2 -3 7 2 10 11 7 17 1 20 -8 4z"/>
<path d="M750 6320 c0 -56 2 -60 23 -60 23 0 47 17 47 33 0 5 -7 1 -16 -8 -25
-24 -39 -13 -42 33 -3 38 -1 42 20 42 13 0 29 -5 36 -12 7 -7 12 -8 12 -2 0
18 -24 34 -52 34 -28 0 -28 -1 -28 -60z"/>
<path d="M981 6363 c-1 -7 -12 -13 -26 -13 -14 0 -25 -5 -25 -10 0 -6 11 -8
28 -4 34 8 35 10 29 26 -4 10 -6 10 -6 1z"/>
<path d="M1127 6353 c-4 -3 -6 -25 -6 -47 2 -30 3 -34 6 -13 6 36 38 37 47 1
10 -37 18 -24 10 14 -5 25 -12 32 -31 32 -14 0 -21 4 -18 10 7 11 2 13 -8 3z"/>
<path d="M3006 6349 c6 -10 -26 -90 -35 -85 -3 2 -7 -8 -8 -22 -1 -31 5 -21
42 62 18 40 20 53 10 53 -8 0 -12 -4 -9 -8z"/>
<path d="M886 6328 c-5 -11 0 -24 13 -37 20 -20 31 -16 12 5 -5 5 -11 18 -13
29 -4 18 -6 18 -12 3z"/>
<path d="M1022 6328 c-6 -6 -12 -18 -12 -24 0 -18 29 -44 48 -44 12 0 9 4 -8
13 -29 15 -32 35 -8 50 13 9 22 7 39 -8 21 -20 21 -20 18 0 -5 24 -57 33 -77
13z"/>
<path d="M940 6315 c-7 -8 -7 -15 -1 -19 5 -3 11 0 14 6 3 10 7 10 17 1 16
-15 4 -34 -18 -26 -14 5 -15 3 -5 -7 15 -17 43 3 43 30 0 22 -35 32 -50 15z"/>
<path d="M78 6244 c2 -36 6 -63 10 -60 3 4 4 32 3 62 l-3 57 27 -7 c17 -4 24
-3 20 4 -3 5 -18 10 -33 10 -27 0 -27 0 -24 -66z"/>
<path d="M851 6293 c-1 -16 5 -23 17 -23 10 0 13 3 6 8 -6 4 -14 14 -17 22 -4
10 -6 8 -6 -7z"/>
<path d="M498 6283 c-2 -5 -1 -26 3 -48 l6 -40 2 48 c1 44 -3 57 -11 40z"/>
<path d="M1085 6280 c3 -5 8 -10 11 -10 2 0 4 5 4 10 0 6 -5 10 -11 10 -5 0
-7 -4 -4 -10z"/>
<path d="M154 6244 c-4 -14 -2 -30 5 -37 8 -8 11 -3 11 21 0 29 3 32 29 32 23
0 31 -5 34 -22 4 -20 4 -19 6 5 1 25 -2 27 -39 27 -34 0 -40 -3 -46 -26z"/>
<path d="M266 6254 c-18 -46 0 -104 31 -104 21 0 15 17 -8 23 -20 5 -21 11
-16 51 7 47 4 58 -7 30z"/>
<path d="M313 6255 c9 -9 17 -25 17 -36 0 -16 -5 -18 -27 -13 -22 4 -25 3 -13
-5 8 -6 24 -11 36 -11 19 0 20 4 15 37 -4 26 -12 39 -25 41 -18 4 -19 3 -3
-13z"/>
<path d="M360 6230 c0 -22 5 -40 10 -40 6 0 10 18 10 40 0 22 -4 40 -10 40 -5
0 -10 -18 -10 -40z"/>
<path d="M398 6235 c5 -46 21 -46 19 0 -1 19 -7 35 -12 35 -7 0 -9 -15 -7 -35z"/>
<path d="M457 6263 c-2 -5 0 -21 4 -38 7 -29 7 -29 8 8 1 35 -3 46 -12 30z"/>
<path d="M2950 6202 c0 -6 -6 -9 -14 -6 -10 4 -13 -6 -13 -38 l0 -43 19 44
c10 24 16 46 13 49 -3 3 -5 0 -5 -6z"/>
<path d="M947 6133 c-3 -5 -7 -34 -8 -65 -4 -55 -3 -57 31 -80 46 -31 80 -84
80 -124 0 -44 -49 -100 -101 -115 -38 -12 -39 -13 -40 -63 -1 -28 -1 -55 0
-59 1 -5 -8 -11 -19 -14 -11 -3 -20 -9 -20 -14 0 -5 7 -6 15 -3 8 4 15 1 15
-6 0 -23 112 -6 164 25 92 54 156 160 156 257 0 99 -61 197 -152 242 -50 25
-112 34 -121 19z"/>
<path d="M2900 6071 c0 -7 -5 -9 -12 -5 -7 5 -9 0 -6 -14 4 -13 -1 -27 -13
-38 -12 -11 -16 -21 -10 -28 6 -7 6 -18 2 -25 -7 -11 -11 -9 -20 5 -11 17 -12
16 -7 -8 3 -16 9 -40 12 -54 5 -21 4 -25 -6 -19 -10 6 -12 4 -7 -9 4 -10 7
-23 8 -29 0 -7 15 42 34 108 18 66 31 122 29 124 -2 2 -4 -1 -4 -8z"/>
<path d="M7680 6060 c0 -18 7 -20 80 -20 73 0 80 2 80 20 0 18 -7 20 -80 20
-73 0 -80 -2 -80 -20z"/>
<path d="M2298 5963 c7 -3 16 -2 19 1 4 3 -2 6 -13 5 -11 0 -14 -3 -6 -6z"/>
<path d="M80 5900 c0 -27 2 -29 30 -23 33 6 41 -11 18 -37 -7 -8 -4 -7 6 2 24
21 14 48 -19 48 -16 0 -25 6 -25 16 0 13 7 15 30 10 19 -3 29 -2 25 4 -3 6
-19 10 -36 10 -26 0 -29 -3 -29 -30z"/>
<path d="M368 5865 c-2 -19 0 -35 4 -35 4 0 8 9 8 19 0 11 5 23 10 26 6 4 8
11 5 16 -12 19 -23 8 -27 -26z"/>
<path d="M410 5881 c0 -12 5 -21 10 -21 6 0 10 6 10 14 0 8 -4 18 -10 21 -5 3
-10 -3 -10 -14z"/>
<path d="M175 5880 c-8 -12 3 -50 14 -50 5 0 6 11 3 25 -3 20 0 25 15 25 27 0
34 -9 22 -31 -7 -15 -6 -17 6 -13 8 4 15 17 15 30 0 21 -5 24 -34 24 -19 0
-38 -5 -41 -10z"/>
<path d="M277 5883 c-11 -10 -8 -63 3 -63 5 0 7 7 4 15 -4 8 -1 15 5 15 6 0 8
7 5 15 -4 11 0 15 16 15 18 0 21 -4 18 -25 -3 -14 -2 -25 2 -25 9 0 19 47 12
55 -8 7 -57 6 -65 -2z"/>
<path d="M1921 5773 c0 -42 3 -52 9 -38 12 28 12 95 0 95 -6 0 -10 -25 -9 -57z"/>
<path d="M1970 5695 c0 -8 7 -15 15 -15 8 0 15 7 15 15 0 8 -7 15 -15 15 -8 0
-15 -7 -15 -15z"/>
<path d="M1980 5550 c0 -5 5 -10 10 -10 6 0 10 5 10 10 0 6 -4 10 -10 10 -5 0
-10 -4 -10 -10z"/>
<path d="M1354 5340 c0 -102 2 -143 3 -92 2 50 2 134 0 185 -1 50 -3 9 -3 -93z"/>
<path d="M80 5174 c0 -37 3 -65 6 -61 9 8 10 118 2 124 -5 2 -8 -26 -8 -63z"/>
<path d="M135 5170 c0 -52 9 -66 18 -27 7 31 2 70 -9 74 -5 2 -9 -19 -9 -47z"/>
<path d="M534 5200 c3 -14 6 -37 6 -52 0 -16 5 -28 11 -28 6 0 9 12 8 28 -2
15 0 32 4 39 4 6 3 14 -3 18 -5 3 -10 3 -10 -2 0 -4 -5 -1 -11 7 -8 12 -9 10
-5 -10z"/>
<path d="M187 5193 c-22 -21 20 -92 45 -77 7 5 4 10 -10 15 -28 10 -30 49 -3
49 11 0 22 -10 26 -22 6 -20 8 -21 12 -5 8 30 -5 47 -35 47 -16 0 -32 -3 -35
-7z"/>
<path d="M280 5165 c0 -19 5 -35 11 -35 7 0 9 10 7 24 -4 18 0 26 15 30 11 3
24 3 29 0 14 -9 9 -44 -7 -44 -8 0 -15 -4 -15 -10 0 -12 3 -12 24 -4 10 4 16
18 16 40 0 33 -1 34 -40 34 -39 0 -40 -1 -40 -35z"/>
<path d="M384 5185 c-4 -8 -3 -27 0 -41 5 -19 12 -25 29 -22 13 2 23 11 25 23
2 18 2 18 -8 3 -17 -27 -30 -21 -30 13 0 28 3 31 25 27 14 -3 25 -1 25 3 0 16
-60 10 -66 -6z"/>
<path d="M497 5163 c6 -39 10 -50 17 -42 6 8 -6 79 -14 79 -5 0 -6 -17 -3 -37z"/>
<path d="M461 5168 c0 -7 4 -22 9 -33 7 -17 9 -15 9 13 1 17 -3 32 -9 32 -5 0
-10 -6 -9 -12z"/>
<path d="M1352 4405 c-2 -346 -1 -627 1 -625 8 9 16 1054 9 1155 -4 56 -8
-179 -10 -530z"/>
<path d="M83 4930 c-30 -13 -38 -51 -19 -89 l17 -31 478 0 c263 0 492 3 509 6
27 6 30 10 35 58 3 28 3 53 0 56 -9 9 -998 10 -1020 0z"/>
<path d="M66 4598 c-21 -30 -20 -50 6 -83 l21 -27 418 3 c229 2 421 7 425 12
4 4 0 13 -9 20 -17 12 -41 77 -29 77 21 2 88 13 90 15 2 2 -201 4 -452 4
l-455 1 -15 -22z"/>
<path d="M140 4290 l-75 -5 -3 -38 c-2 -27 2 -45 15 -59 17 -19 30 -20 440
-17 361 2 423 5 423 17 0 12 10 14 53 8 28 -3 62 -6 75 -6 13 0 20 -4 17 -10
-4 -6 18 -10 58 -10 49 0 68 4 80 18 20 22 22 75 5 90 -14 10 -953 21 -1088
12z m727 -96 c-3 -3 -12 -4 -19 -1 -8 3 -5 6 6 6 11 1 17 -2 13 -5z"/>
<path d="M988 3643 c119 -3 162 -7 162 -16 0 -8 4 -7 11 3 9 13 10 13 6 -2 -3
-9 -2 -29 3 -45 7 -24 8 -25 9 -5 1 30 21 28 21 -3 0 -14 -1 -26 -2 -27 -2 0
-68 -4 -148 -8 l-145 -7 155 1 c118 1 154 4 153 13 -2 7 3 12 9 10 19 -3 21
41 4 69 l-16 24 -193 -2 -192 -2 163 -3z"/>
<path d="M65 3316 c-16 -24 -16 -30 -3 -64 l14 -37 569 -3 c527 -2 571 -1 583
15 16 22 16 65 0 85 -12 15 -76 17 -579 24 l-567 7 -17 -27z"/>
<path d="M1354 2885 c0 -104 2 -146 3 -92 2 54 2 139 0 190 -1 51 -3 7 -3 -98z"/>
<path d="M810 2675 c0 -46 3 -55 18 -54 10 0 12 3 5 6 -16 6 -17 65 -2 80 7 7
6 12 -5 16 -13 5 -16 -3 -16 -48z"/>
<path d="M72 2673 l1 -48 4 44 c4 43 5 43 36 37 23 -4 28 -3 17 4 -8 5 -25 10
-37 10 -21 0 -23 -4 -21 -47z"/>
<path d="M705 2711 c-3 -6 -2 -11 3 -11 14 0 21 -64 8 -72 -6 -5 -2 -8 10 -8
20 0 21 3 14 37 -5 20 -8 41 -7 46 3 14 -20 20 -28 8z"/>
<path d="M1036 2683 c10 -42 24 -65 37 -60 18 6 18 21 -3 55 -24 40 -43 42
-34 5z m38 -45 c-4 -6 -10 -5 -15 3 -14 22 -10 33 6 19 8 -7 12 -17 9 -22z"/>
<path d="M1162 2680 c0 -14 2 -19 5 -12 2 6 2 18 0 25 -3 6 -5 1 -5 -13z"/>
<path d="M327 2658 c8 -46 13 -48 13 -5 0 21 -4 37 -10 37 -5 0 -7 -14 -3 -32z"/>
<path d="M171 2658 c1 -16 3 -18 6 -6 2 9 14 19 26 21 18 4 17 5 -5 6 -23 1
-28 -3 -27 -21z"/>
<path d="M235 2670 c3 -5 8 -10 11 -10 2 0 4 5 4 10 0 6 -5 10 -11 10 -5 0 -7
-4 -4 -10z"/>
<path d="M272 2643 c2 -31 7 -38 26 -39 18 -1 19 -1 2 3 -23 5 -27 42 -8 61 9
9 8 12 -6 12 -14 0 -17 -7 -14 -37z"/>
<path d="M367 2674 c-10 -11 -9 -52 2 -59 6 -3 8 8 6 25 -4 27 -1 31 18 28 15
-2 24 -12 29 -33 6 -29 6 -29 5 5 -2 29 -6 35 -27 38 -14 2 -29 0 -33 -4z"/>
<path d="M455 2670 c3 -5 8 -10 11 -10 2 0 4 5 4 10 0 6 -5 10 -11 10 -5 0 -7
-4 -4 -10z"/>
<path d="M122 2654 c9 -3 19 -15 22 -27 4 -18 4 -18 3 3 -1 17 -8 25 -22 27
-14 1 -15 0 -3 -3z"/>
<path d="M226 2635 c4 -8 8 -15 10 -15 2 0 4 7 4 15 0 8 -4 15 -10 15 -5 0 -7
-7 -4 -15z"/>
<path d="M1138 2633 c7 -3 16 -2 19 1 4 3 -2 6 -13 5 -11 0 -14 -3 -6 -6z"/>
<path d="M187 2609 c7 -7 15 -10 18 -7 3 3 -2 9 -12 12 -14 6 -15 5 -6 -5z"/>
<path d="M1364 2300 c0 -80 2 -112 3 -72 2 39 2 105 0 145 -1 39 -3 7 -3 -73z"/>
<path d="M70 2379 c0 -6 7 -8 16 -5 36 14 54 -3 54 -50 0 -40 -2 -44 -24 -44
-22 0 -25 5 -29 43 -3 40 -4 40 -5 -10 -2 -56 1 -59 42 -43 23 8 26 15 26 54
0 35 -5 48 -19 56 -26 13 -61 13 -61 -1z"/>
<path d="M700 2365 c0 -8 4 -15 9 -15 5 0 12 -10 14 -22 3 -14 5 -9 6 15 1 27
-3 37 -14 37 -8 0 -15 -7 -15 -15z"/>
<path d="M807 2373 c-4 -3 -7 -20 -7 -37 l1 -31 14 25 c21 38 16 67 -8 43z"/>
<path d="M1047 2348 c11 -13 23 -31 26 -40 4 -10 11 -18 17 -18 7 0 7 7 -1 23
-16 31 -40 57 -52 57 -6 0 -1 -10 10 -22z"/>
<path d="M1136 2354 c-9 -8 -16 -25 -16 -37 1 -21 1 -21 15 3 10 19 15 21 18
10 3 -8 8 -22 10 -30 3 -8 6 4 6 28 1 45 -8 52 -33 26z"/>
<path d="M186 2345 c-20 -20 -1 -75 26 -75 5 0 0 12 -12 27 -22 28 -18 39 15
45 16 2 20 -3 20 -29 0 -17 3 -29 7 -26 15 8 8 61 -8 67 -23 9 -31 8 -48 -9z"/>
<path d="M282 2341 c-8 -4 -12 -19 -10 -32 2 -20 9 -24 38 -26 34 -1 34 -1 5
5 -16 4 -31 15 -33 24 -4 19 29 32 58 23 11 -4 20 -2 20 4 0 13 -59 14 -78 2z"/>
<path d="M377 2343 c-4 -3 -7 -20 -6 -37 l1 -31 9 34 c10 33 8 47 -4 34z"/>
<path d="M710 2290 c0 -5 6 -10 14 -10 8 0 18 5 21 10 3 6 -3 10 -14 10 -12 0
-21 -4 -21 -10z"/>
<path d="M805 2290 c3 -5 12 -10 20 -10 8 0 17 5 20 10 4 6 -5 10 -20 10 -15
0 -24 -4 -20 -10z"/>
<path d="M420 2280 c0 -5 5 -10 11 -10 5 0 7 5 4 10 -3 6 -8 10 -11 10 -2 0
-4 -4 -4 -10z"/>
<path d="M298 2243 c6 -2 18 -2 25 0 6 3 1 5 -13 5 -14 0 -19 -2 -12 -5z"/>
<path d="M75 2060 c-3 -5 -1 -18 5 -27 10 -17 10 -16 8 2 -2 15 3 20 19 19 12
0 20 3 17 8 -7 11 -42 10 -49 -2z"/>
<path d="M700 2050 c0 -5 7 -10 15 -10 8 0 15 5 15 10 0 6 -7 10 -15 10 -8 0
-15 -4 -15 -10z"/>
<path d="M807 2054 c-9 -9 4 -35 14 -28 5 3 9 12 9 20 0 14 -12 19 -23 8z"/>
<path d="M1153 2013 c10 -32 13 -34 15 -15 4 28 -4 52 -17 52 -5 0 -4 -16 2
-37z"/>
<path d="M183 2033 c-7 -2 -13 -10 -13 -16 0 -8 3 -8 11 0 8 8 20 8 35 3 13
-5 24 -6 24 -1 0 16 -33 24 -57 14z"/>
<path d="M267 2033 c-4 -3 -7 -18 -6 -32 1 -26 1 -25 10 3 9 31 7 41 -4 29z"/>
<path d="M1043 2017 c15 -15 27 -31 27 -37 0 -5 5 -10 11 -10 17 0 -28 65 -48
69 -14 2 -11 -3 10 -22z"/>
<path d="M115 2020 c28 -12 37 -12 30 0 -3 6 -16 10 -28 9 -21 0 -21 -1 -2 -9z"/>
<path d="M328 1995 c2 -19 6 -35 8 -35 2 0 4 16 4 35 0 19 -4 35 -8 35 -4 0
-6 -16 -4 -35z"/>
<path d="M363 1995 c0 -22 2 -30 4 -17 2 12 2 30 0 40 -3 9 -5 -1 -4 -23z"/>
<path d="M731 2004 c0 -11 3 -14 6 -6 3 7 2 16 -1 19 -3 4 -6 -2 -5 -13z"/>
<path d="M1120 1980 c0 -5 5 -10 11 -10 5 0 7 5 4 10 -3 6 -8 10 -11 10 -2 0
-4 -4 -4 -10z"/>
<path d="M710 1970 c0 -5 7 -10 15 -10 8 0 15 5 15 10 0 6 -7 10 -15 10 -8 0
-15 -4 -15 -10z"/>
<path d="M810 1970 c0 -5 7 -7 15 -4 8 4 15 8 15 10 0 2 -7 4 -15 4 -8 0 -15
-4 -15 -10z"/>
<path d="M260 1955 c0 -8 4 -15 10 -15 5 0 7 7 4 15 -4 8 -8 15 -10 15 -2 0
-4 -7 -4 -15z"/>
<path d="M80 1950 c0 -5 5 -10 11 -10 5 0 7 5 4 10 -3 6 -8 10 -11 10 -2 0 -4
-4 -4 -10z"/>
<path d="M170 1945 c0 -8 4 -15 10 -15 5 0 7 7 4 15 -4 8 -8 15 -10 15 -2 0
-4 -7 -4 -15z"/>
<path d="M1359 1673 c0 -87 -2 -168 -5 -180 -2 -13 1 -23 6 -23 6 0 10 67 10
180 0 99 -2 180 -5 180 -3 0 -5 -71 -6 -157z"/>
<path d="M690 1720 c0 -5 9 -10 20 -10 11 0 20 5 20 10 0 6 -9 10 -20 10 -11
0 -20 -4 -20 -10z"/>
<path d="M807 1723 c-15 -14 -6 -31 13 -26 11 3 20 12 20 19 0 14 -22 19 -33
7z"/>
<path d="M1021 1697 c1 -21 3 -25 6 -12 3 11 10 23 15 26 5 3 3 9 -6 12 -13 5
-16 0 -15 -26z"/>
<path d="M1157 1678 c8 -59 13 -61 13 -5 0 26 -4 47 -9 47 -5 0 -7 -19 -4 -42z"/>
<path d="M78 1698 c7 -7 20 -13 29 -13 10 0 20 -11 24 -25 l7 -25 1 27 c1 30
-1 32 -44 42 -25 6 -28 5 -17 -6z"/>
<path d="M177 1704 c-10 -10 -9 -64 1 -64 4 0 8 12 7 28 0 21 5 28 23 30 15 2
22 -2 22 -12 0 -9 5 -16 11 -16 6 0 9 8 7 18 -3 17 -57 30 -71 16z"/>
<path d="M277 1703 c-4 -3 -7 -13 -7 -22 1 -14 2 -13 11 2 14 24 48 21 59 -5
8 -22 9 -22 9 5 1 24 -2 27 -32 27 -19 0 -37 -3 -40 -7z"/>
<path d="M380 1695 c-6 -7 -10 -24 -7 -37 4 -20 4 -19 6 6 1 21 5 27 16 22 8
-3 15 -1 15 4 0 17 -18 20 -30 5z"/>
<path d="M1076 1665 c3 -16 7 -32 9 -34 9 -8 34 9 45 31 11 22 10 22 -9 -2
-21 -27 -21 -27 -39 10 -12 25 -12 25 -6 -5z"/>
<path d="M215 1650 c-19 -8 -19 -9 3 -9 12 -1 22 4 22 9 0 6 -1 10 -2 9 -2 0
-12 -4 -23 -9z"/>
<path d="M270 1630 c0 -22 5 -30 18 -29 10 0 12 3 5 6 -7 2 -13 13 -13 23 0
10 6 21 13 23 7 3 5 6 -5 6 -13 1 -18 -7 -18 -29z"/>
<path d="M80 1640 c0 -5 5 -10 11 -10 5 0 7 5 4 10 -3 6 -8 10 -11 10 -2 0 -4
-4 -4 -10z"/>
<path d="M710 1625 c7 -8 17 -12 22 -9 6 4 5 10 -3 15 -22 14 -33 10 -19 -6z"/>
<path d="M800 1628 c0 -11 48 -10 54 1 3 4 -8 8 -24 7 -17 -1 -30 -4 -30 -8z"/>
<path d="M645 1355 c-14 -13 -25 -30 -25 -38 0 -29 23 -78 40 -87 11 -6 125
-10 270 -10 l251 0 24 25 c36 35 37 76 2 113 -20 22 -24 22 -279 22 l-259 0
-24 -25z"/>
<path d="M275 1309 c-4 -6 -4 -13 -1 -16 3 -4 6 -1 6 5 0 6 8 13 18 15 15 4
15 5 0 6 -9 0 -20 -4 -23 -10z"/>
<path d="M346 1293 c4 -16 11 -32 17 -38 6 -7 7 -1 3 18 -4 18 -2 27 6 27 9 0
8 3 -2 10 -25 16 -31 12 -24 -17z"/>
<path d="M402 1300 c14 -22 24 -19 15 5 -4 8 -11 15 -17 15 -6 0 -6 -7 2 -20z"/>
<path d="M227 1290 c3 -11 7 -20 9 -20 2 0 4 9 4 20 0 11 -4 20 -9 20 -5 0 -7
-9 -4 -20z"/>
<path d="M312 1270 c7 -10 14 -18 15 -16 6 6 -9 36 -18 36 -5 0 -4 -9 3 -20z"/>
<path d="M1357 1184 c-8 -78 -30 -121 -77 -149 -34 -20 -49 -20 -657 -20
l-623 0 0 -96 0 -96 116 -6 c64 -4 121 -10 128 -15 6 -5 83 -5 171 0 88 4 250
12 360 17 202 10 325 26 325 42 0 5 9 9 20 9 11 0 20 6 20 14 0 9 18 16 53 21
28 4 46 9 40 12 -18 6 -16 23 2 23 8 0 22 9 32 19 10 11 25 21 33 23 8 2 27
18 42 37 26 32 28 39 28 132 0 55 -2 99 -4 99 -2 0 -6 -30 -9 -66z"/>
<path d="M277 1229 c7 -7 15 -10 18 -7 3 3 -2 9 -12 12 -14 6 -15 5 -6 -5z"/>
</g>
</svg>
